<svg width="84" height="82" viewBox="0 0 84 82" fill="none" xmlns="http://www.w3.org/2000/svg">
<path d="M2 57.2212H15.8673C16.4195 57.2212 16.8673 57.6689 16.8673 58.2212V78.8761C16.8673 79.4283 16.4195 79.8761 15.8673 79.8761H2" stroke="black" stroke-width="3"/>
<path d="M17.2212 57.5752L21.9241 53.6562C23.0024 52.7576 24.3616 52.2655 25.7652 52.2655H44.8515C45.9242 52.2655 46.9047 52.8715 47.3844 53.8309V53.8309C47.7831 54.6282 47.7831 55.5666 47.3844 56.3638V56.3638C46.9047 57.3232 45.9242 57.9292 44.8515 57.9292H35.7819C34.8055 57.9292 33.898 58.4322 33.3805 59.2602V59.2602C32.8066 60.1785 32.8066 61.3437 33.3805 62.262V62.262C33.898 63.0899 34.8055 63.5929 35.7819 63.5929H49.7088C50.9133 63.5929 52.0899 63.2304 53.0856 62.5525L66.6734 53.3013C67.6394 52.6436 68.8437 52.4386 69.9729 52.7397L70.5594 52.8961C72.2294 53.3414 73.2874 54.983 73.0033 56.6879V56.6879C72.8699 57.4882 72.4509 58.213 71.824 58.728L54.6335 72.8488C53.5601 73.7304 52.2141 74.2124 50.8251 74.2124H17.5752" stroke="black" stroke-width="4"/>
<mask id="path-3-inside-1_112_8" fill="white">
<path d="M77.7523 42.354C77.7523 32.9658 74.0228 23.9622 67.3844 17.3237C60.7459 10.6853 51.7422 6.95581 42.354 6.95581C32.9659 6.95581 23.9622 10.6853 17.3237 17.3237C10.6853 23.9622 6.95581 32.9658 6.95581 42.354L42.354 42.354H77.7523Z"/>
</mask>
<path d="M77.7523 42.354C77.7523 32.9658 74.0228 23.9622 67.3844 17.3237C60.7459 10.6853 51.7422 6.95581 42.354 6.95581C32.9659 6.95581 23.9622 10.6853 17.3237 17.3237C10.6853 23.9622 6.95581 32.9658 6.95581 42.354L42.354 42.354H77.7523Z" stroke="black" stroke-width="8" mask="url(#path-3-inside-1_112_8)"/>
<path d="M38.1062 2H42.354M46.6018 2H42.354M42.354 2V7.66372" stroke="black" stroke-width="4" stroke-linejoin="round"/>
<path d="M81.3817 41.646H3.28323C2.96554 41.646 2.70801 41.9035 2.70801 42.2212V43.4489C2.70801 47.5362 6.02137 50.8495 10.1086 50.8495H74.5995C78.5349 50.8495 81.7667 47.7391 81.9173 43.8065L81.9764 42.2639C81.9893 41.9265 81.7193 41.646 81.3817 41.646Z" stroke="black" stroke-width="4"/>
</svg>
